<?xml version="1.0" encoding="UTF-8" standalone="no"?>
<!-- Generator: Adobe Illustrator 21.1.0, SVG Export Plug-In . SVG Version: 6.00 Build 0)  -->

<svg
   version="1.1"
   id="Layer_1"
   x="0px"
   y="0px"
   viewBox="0 0 71.412066 50"
   xml:space="preserve"
   inkscape:version="1.1.2 (0a00cf5339, 2022-02-04)"
   sodipodi:docname="YouTube_full-color_icon_(2017).svg"
   width="71.412064"
   height="50"
   xmlns:inkscape="http://www.inkscape.org/namespaces/inkscape"
   xmlns:sodipodi="http://sodipodi.sourceforge.net/DTD/sodipodi-0.dtd"
   xmlns="http://www.w3.org/2000/svg"
   xmlns:svg="http://www.w3.org/2000/svg"
   xmlns:rdf="http://www.w3.org/1999/02/22-rdf-syntax-ns#"
   xmlns:cc="http://creativecommons.org/ns#"
   xmlns:dc="http://purl.org/dc/elements/1.1/"><metadata
     id="metadata33"><rdf:RDF><cc:Work
         rdf:about=""><dc:format>image/svg+xml</dc:format><dc:type
           rdf:resource="http://purl.org/dc/dcmitype/StillImage" /></cc:Work></rdf:RDF></metadata><defs
     id="defs31" /><sodipodi:namedview
     pagecolor="#ffffff"
     bordercolor="#666666"
     borderopacity="1"
     objecttolerance="10"
     gridtolerance="10"
     guidetolerance="10"
     inkscape:pageopacity="0"
     inkscape:pageshadow="2"
     inkscape:window-width="1862"
     inkscape:window-height="1024"
     id="namedview29"
     showgrid="true"
     fit-margin-top="0"
     fit-margin-left="0"
     fit-margin-right="0"
     fit-margin-bottom="0"
     inkscape:zoom="8.4"
     inkscape:cx="21.666667"
     inkscape:cy="25"
     inkscape:window-x="0"
     inkscape:window-y="0"
     inkscape:window-maximized="1"
     inkscape:current-layer="Layer_1"
     inkscape:pagecheckerboard="0"><inkscape:grid
       type="xygrid"
       id="grid2991"
       empspacing="5"
       visible="true"
       enabled="true"
       snapvisiblegridlinesonly="true"
       originx="-2.0000002"
       originy="-12.523809" /></sodipodi:namedview><style
     type="text/css"
     id="style3">
	.st0{fill:#FF0000;}
	.st1{fill:#FFFFFF;}
	.st2{fill:#282828;}
</style><path
     style="fill:#008080"
     inkscape:connector-curvature="0"
     id="path7"
     d="M 69.941176,7.823529 C 69.117647,4.764706 66.705882,2.352941 63.647058,1.529412 58.058823,0 35.705882,0 35.705882,0 c 0,0 -22.352941,0 -27.9411762,1.470588 -3,0.82353 -5.4705882,3.294118 -6.2941176,6.352941 C 0,13.411765 0,25 0,25 0,25 0,36.647059 1.4705882,42.17647 2.2941176,45.235294 4.7058823,47.647058 7.7647058,48.470588 13.411765,50 35.705882,50 35.705882,50 c 0,0 22.352941,0 27.941176,-1.470589 3.058824,-0.823529 5.470589,-3.235294 6.294118,-6.294117 1.470588,-5.588235 1.470588,-17.176471 1.470588,-17.176471 0,0 0.05882,-11.647058 -1.470588,-17.235294 z"
     class="st0" /><polygon
     style="fill:#ffffff"
     id="polygon9"
     points="48.6,24.3 48.6,60.7 80.2,42.5 "
     class="st1"
     transform="scale(0.58823529)" /></svg>
