<?xml version="1.0" encoding="UTF-8" standalone="no"?>
<!-- Generator: Adobe Illustrator 21.1.0, SVG Export Plug-In . SVG Version: 6.00 Build 0)  -->

<svg
   xmlns:dc="http://purl.org/dc/elements/1.1/"
   xmlns:cc="http://creativecommons.org/ns#"
   xmlns:rdf="http://www.w3.org/1999/02/22-rdf-syntax-ns#"
   xmlns:svg="http://www.w3.org/2000/svg"
   xmlns="http://www.w3.org/2000/svg"
   xmlns:sodipodi="http://sodipodi.sourceforge.net/DTD/sodipodi-0.dtd"
   xmlns:inkscape="http://www.inkscape.org/namespaces/inkscape"
   version="1.1"
   id="Layer_1"
   x="0px"
   y="0px"
   viewBox="0 0 75.000002 75"
   xml:space="preserve"
   inkscape:version="0.48.4 r9939"
   sodipodi:docname="YouTube_full-color_icon_(2017).svg"
   width="75"
   height="75"><metadata
     id="metadata33"><rdf:RDF><cc:Work
         rdf:about=""><dc:format>image/svg+xml</dc:format><dc:type
           rdf:resource="http://purl.org/dc/dcmitype/StillImage" /><dc:title /></cc:Work></rdf:RDF></metadata><defs
     id="defs31" /><sodipodi:namedview
     pagecolor="#ffffff"
     bordercolor="#666666"
     borderopacity="1"
     objecttolerance="10"
     gridtolerance="10"
     guidetolerance="10"
     inkscape:pageopacity="0"
     inkscape:pageshadow="2"
     inkscape:window-width="1329"
     inkscape:window-height="750"
     id="namedview29"
     showgrid="true"
     fit-margin-top="0"
     fit-margin-left="0"
     fit-margin-right="0"
     fit-margin-bottom="0"
     inkscape:zoom="8.4"
     inkscape:cx="37.5"
     inkscape:cy="37.5"
     inkscape:window-x="37"
     inkscape:window-y="18"
     inkscape:window-maximized="1"
     inkscape:current-layer="Layer_1"><inkscape:grid
       type="xygrid"
       id="grid2991"
       empspacing="5"
       visible="true"
       enabled="true"
       snapvisiblegridlinesonly="true" /></sodipodi:namedview><style
     type="text/css"
     id="style3">
	.st0{fill:#FF0000;}
	.st1{fill:#FFFFFF;}
	.st2{fill:#282828;}
</style><path
     style="fill:#008080"
     inkscape:connector-curvature="0"
     id="path7"
     d="M 71.941176,20.347338 C 71.117647,17.288515 68.705882,14.87675 65.647058,14.053221 60.058823,12.523809 37.705882,12.523809 37.705882,12.523809 c 0,0 -22.352941,0 -27.9411761,1.470588 -3,0.82353 -5.4705882,3.294118 -6.2941176,6.352941 -1.4705882,5.588236 -1.4705882,17.176471 -1.4705882,17.176471 0,0 0,11.647059 1.4705882,17.17647 0.8235294,3.058824 3.2352941,5.470588 6.2941176,6.294118 5.6470591,1.529412 27.9411761,1.529412 27.9411761,1.529412 0,0 22.352941,0 27.941176,-1.470589 3.058824,-0.823529 5.470589,-3.235294 6.294118,-6.294117 1.470588,-5.588235 1.470588,-17.176471 1.470588,-17.176471 0,0 0.05882,-11.647058 -1.470588,-17.235294 z"
     class="st0" /><polygon
     style="fill:#ffffff"
     id="polygon9"
     points="48.6,60.7 80.2,42.5 48.6,24.3 "
     class="st1"
     transform="matrix(0.58823529,0,0,0.58823529,2.0000001,12.523809)" /></svg>